<svg width="72" height="72" viewBox="0 0 72 72" fill="none" xmlns="http://www.w3.org/2000/svg">
<g clip-path="url(#clip0_37_35)">
<g clip-path="url(#clip1_37_35)">
<path d="M27 13.5C27 17.0804 25.5777 20.5142 23.0459 23.0459C20.5142 25.5777 17.0804 27 13.5 27C9.91958 27 6.4858 25.5777 3.95406 23.0459C1.42232 20.5142 0 17.0804 0 13.5C0 9.91958 1.42232 6.4858 3.95406 3.95406C6.4858 1.42232 9.91958 0 13.5 0C17.0804 0 20.5142 1.42232 23.0459 3.95406C25.5777 6.4858 27 9.91958 27 13.5ZM4.5 13.5C4.5 15.8869 5.44821 18.1761 7.13604 19.864C8.82387 21.5518 11.1131 22.5 13.5 22.5C15.8869 22.5 18.1761 21.5518 19.864 19.864C21.5518 18.1761 22.5 15.8869 22.5 13.5C22.5 11.1131 21.5518 8.82387 19.864 7.13604C18.1761 5.44821 15.8869 4.5 13.5 4.5C11.1131 4.5 8.82387 5.44821 7.13604 7.13604C5.44821 8.82387 4.5 11.1131 4.5 13.5Z" fill="#F7F7F7"/>
<path d="M40.5 27H42.75C44.9329 26.9997 47.0415 27.7929 48.6832 29.2317C50.3248 30.6705 51.3875 32.6569 51.6735 34.821L65.6685 28.602C66.3535 28.2968 67.104 28.1676 67.8516 28.2262C68.5993 28.2848 69.3204 28.5293 69.9495 28.9375C70.5786 29.3458 71.0957 29.9047 71.4538 30.5637C71.8119 31.2226 71.9997 31.9606 72 32.7105V66.2895C71.9993 67.0389 71.8116 67.7762 71.4537 68.4346C71.0958 69.093 70.5792 69.6516 69.9508 70.0597C69.3223 70.4678 68.6018 70.7125 67.8548 70.7716C67.1078 70.8306 66.3578 70.7022 65.673 70.398L51.6735 64.179C51.3875 66.3431 50.3248 68.3295 48.6832 69.7683C47.0415 71.2071 44.9329 72.0003 42.75 72H9C6.61305 72 4.32387 71.0518 2.63604 69.364C0.948212 67.6761 0 65.3869 0 63V36C0 33.6131 0.948212 31.3239 2.63604 29.636C4.32387 27.9482 6.61305 27 9 27H40.5ZM67.5 66.285V32.715L51.75 39.7125V59.2875L67.5 66.285ZM4.5 36V63C4.5 64.1935 4.97411 65.3381 5.81802 66.182C6.66193 67.0259 7.80653 67.5 9 67.5H42.75C43.9435 67.5 45.0881 67.0259 45.932 66.182C46.7759 65.3381 47.25 64.1935 47.25 63V36C47.25 34.8065 46.7759 33.6619 45.932 32.818C45.0881 31.9741 43.9435 31.5 42.75 31.5H9C7.80653 31.5 6.66193 31.9741 5.81802 32.818C4.97411 33.6619 4.5 34.8065 4.5 36Z" fill="#F7F7F7"/>
<path d="M40.5 27C44.0804 27 47.5142 25.5777 50.0459 23.0459C52.5777 20.5142 54 17.0804 54 13.5C54 9.91958 52.5777 6.4858 50.0459 3.95406C47.5142 1.42232 44.0804 0 40.5 0C36.9196 0 33.4858 1.42232 30.9541 3.95406C28.4223 6.4858 27 9.91958 27 13.5C27 17.0804 28.4223 20.5142 30.9541 23.0459C33.4858 25.5777 36.9196 27 40.5 27ZM31.5 13.5C31.5 11.1131 32.4482 8.82387 34.136 7.13604C35.8239 5.44821 38.1131 4.5 40.5 4.5C42.8869 4.5 45.1761 5.44821 46.864 7.13604C48.5518 8.82387 49.5 11.1131 49.5 13.5C49.5 15.8869 48.5518 18.1761 46.864 19.864C45.1761 21.5518 42.8869 22.5 40.5 22.5C38.1131 22.5 35.8239 21.5518 34.136 19.864C32.4482 18.1761 31.5 15.8869 31.5 13.5Z" fill="#F7F7F7"/>
</g>
</g>
<defs>
<clipPath id="clip0_37_35">
<rect width="72" height="72" fill="white"/>
</clipPath>
<clipPath id="clip1_37_35">
<rect width="72" height="72" fill="white"/>
</clipPath>
</defs>
</svg>
