<svg width="81" height="81" viewBox="0 0 81 81" fill="none" xmlns="http://www.w3.org/2000/svg">
<path fill-rule="evenodd" clip-rule="evenodd" d="M66.843 17.6412C67.2374 17.2497 67.958 16.9477 68.8872 16.9701C69.6869 16.9647 70.4601 17.2517 71.0566 17.7754C71.5497 18.2601 71.8986 19.0431 71.9327 19.9193C71.9669 20.7955 71.6862 21.4591 71.2993 21.8394L42.8923 49.8027L38.0642 50.2352L38.4434 45.5933L66.843 17.6412ZM75.0844 13.8233C73.427 12.1902 71.1514 11.4259 69.0162 11.3774C66.8809 11.329 64.5332 12.0001 62.8151 13.6891L33.6799 42.3682C33.2026 42.8377 32.9109 43.4589 32.8568 44.1205L32.1211 53.0949C32.0878 53.5012 32.1453 53.9097 32.2896 54.2919C32.4339 54.6741 32.6614 55.0206 32.9562 55.3073C33.2511 55.5939 33.6061 55.8137 33.9964 55.9513C34.3867 56.0889 34.8029 56.1409 35.2159 56.1037L44.4321 55.2835C45.0962 55.2233 45.7178 54.9356 46.1881 54.4707L75.3234 25.7916C77.0528 24.0914 77.7014 21.7909 77.6179 19.6956C77.5466 17.4963 76.6432 15.4023 75.0844 13.8233ZM20.9706 16.9701C18.3954 16.977 15.9275 17.9855 14.1062 19.7753C12.2848 21.565 11.258 23.9907 11.25 26.5223V67.069C11.257 69.6013 12.2834 72.0279 14.1048 73.8185C15.9263 75.6091 18.3947 76.6181 20.9706 76.625H62.2159C64.7912 76.6181 67.259 75.6096 69.0803 73.8198C70.9017 72.03 71.9285 69.6044 71.9365 67.0728V46.7975C71.9365 46.0559 71.6368 45.3447 71.1034 44.8202C70.5699 44.2958 69.8464 44.0012 69.092 44.0012C68.3376 44.0012 67.6141 44.2958 67.0806 44.8202C66.5472 45.3447 66.2475 46.0559 66.2475 46.7975V67.0728C66.2475 69.2427 64.427 71.0324 62.2159 71.0324H20.9706C18.7595 71.0324 16.939 69.2427 16.939 67.0728V26.5223C16.939 24.3524 18.7595 22.5627 20.9706 22.5627H41.5914C42.3458 22.5627 43.0693 22.2681 43.6027 21.7437C44.1362 21.2193 44.4359 20.508 44.4359 19.7664C44.4359 19.0248 44.1362 18.3135 43.6027 17.7891C43.0693 17.2647 42.3458 16.9701 41.5914 16.9701H20.9706Z" fill="#F7F7F7"/>
</svg>
